# xmcd CD database file
#
# Track frame offsets:
#	150
#	30821
#	47143
#	80402
#	108441
#	126221
#	148494
#	182098
#	208666
#	227982
#	252192
#	284606
#	305942
#
# Disc length: 4323 seconds
#
# Revision: 0
# Processed by: cddbd v1.4PL0 Copyright (c) Steve Scherf et al.
# Submitted via: CDex 1.50
#
DISCID=c410e10d
DTITLE=Andreas Böttcher - Blue Pipes
DYEAR=1996
DGENRE=Jazz
TTITLE0=Blue Pipes, Part I
TTITLE1=Twelve o'clock
TTITLE2=Swiss echoes
TTITLE3=Village's noises from far away
TTITLE4=Blue Pipes, Part II
TTITLE5=Night song
TTITLE6=Toccata
TTITLE7=Air voices
TTITLE8=Blue Pipes, Part III
TTITLE9=Fire voices
TTITLE10=Space waves
TTITLE11=Two positives
TTITLE12=Blue Pipes, Part IV
EXTD=YEAR: 1996
EXTT0=
EXTT1=
EXTT2=
EXTT3=
EXTT4=
EXTT5=
EXTT6=
EXTT7=
EXTT8=
EXTT9=
EXTT10=
EXTT11=
EXTT12=
PLAYORDER=
